# xmcd
#
# Track frame offsets: 
#        150
#        14822
#        38202
#        51045
#        68330
#        81957
#        97872
#        109125
#        122475
#        140610
#        162177
#        183602
#        200222
#
# Disc length: 2958 seconds
#
# Revision: 2
# Processed by: cddbd v1.5.2PL0 Copyright (c) Steve Scherf et al.
# Submitted via: ExactAudioCopy v1.0b4
#
DISCID=b20b8c0d
DTITLE=Clifton Chenier and His Red Hot Louisianna Band - In New Orleans
DYEAR=1988
DGENRE=Cajun, Zydeco, Blues
TTITLE0=Boogie Louisiane
TTITLE1=Cooton-Picker Blues
TTITLE2=J'Aime Pain De Mais
TTITLE3=Pousse Cafe Waltz
TTITLE4=Hello Rosa-Lee
TTITLE5=Jusque Parce Que T'Aime
TTITLE6=Boogiein' In New Orleans
TTITLE7=Rumblin' On The Bayou
TTITLE8=I'm Gonna Take You Home Tonight
TTITLE9=Mon Vieu Buggy
TTITLE10=Crying My Heart Out You
TTITLE11=Tous Les Jours
TTITLE12=Mardi Gras Boogie
EXTD=
EXTT0=
EXTT1=
EXTT2=
EXTT3=
EXTT4=
EXTT5=
EXTT6=
EXTT7=
EXTT8=
EXTT9=
EXTT10=
EXTT11=
EXTT12=
PLAYORDER=
